<?xml version="1.0" standalone="no"?>
<!DOCTYPE svg PUBLIC "-//W3C//DTD SVG 20010904//EN"
 "http://www.w3.org/TR/2001/REC-SVG-20010904/DTD/svg10.dtd">
<svg version="1.0" xmlns="http://www.w3.org/2000/svg"
 width="700.000000pt" height="700.000000pt" viewBox="0 0 700.000000 700.000000"
 preserveAspectRatio="xMidYMid meet">
<metadata>
Created by potrace 1.11, written by Peter Selinger 2001-2013
</metadata>
<g transform="translate(0.000000,700.000000) scale(0.100000,-0.100000)"
fill="#000000" stroke="none">
<path d="M0 3500 l0 -3500 775 0 775 0 2 3496 3 3497 971 -1783 972 -1782 54
99 c29 54 467 856 973 1782 l920 1683 3 -3496 2 -3496 775 0 775 0 0 3500 0
3500 -3500 0 -3500 0 0 -3500z"/>
<path d="M2315 3904 c19 -405 25 -941 25 -2328 l0 -1576 1160 0 1160 0 0 1563
c0 872 5 1741 11 1967 6 223 9 420 7 438 -3 29 -33 -23 -221 -385 -222 -425
-947 -1753 -957 -1753 -9 0 -775 1399 -985 1800 -108 206 -199 377 -201 379
-2 2 -1 -45 1 -105z"/>
</g>
</svg>
